<?xml version="1.0" encoding="utf-8"?>
<!-- Generator: Adobe Illustrator 28.0.0, SVG Export Plug-In . SVG Version: 6.00 Build 0)  -->
<svg version="1.1" id="Ebene_1" xmlns="http://www.w3.org/2000/svg" xmlns:xlink="http://www.w3.org/1999/xlink" x="0px" y="0px"
	 viewBox="0 0 256 256" style="enable-background:new 0 0 256 256;" xml:space="preserve">
<style type="text/css">
	.st0{fill:#FFFFFF;}
	.st1{fill:#004964;stroke:#004964;stroke-width:2;stroke-linecap:square;stroke-miterlimit:10;}
</style>
<path class="st0" d="M199,256H57c-31.5,0-57-25.5-57-57V57C0,25.5,25.5,0,57,0h142c31.5,0,57,25.5,57,57v142
	C256,230.5,230.5,256,199,256z"/>
<g>
	<path class="st1" d="M143.4,205.3l-3.3-2.2l-5.3,8.2h-14l-8.7-14.2h39.7v-14.4h-46.5v-6.2h51.8v-15h-56.8v-6.2h59l0.2-1.7
		c1.9-10.6,9.9-37.8,12.8-47.5l0.5-1.7c2.2-7,6.2-20.3,6.2-26.7c0-25.5-19.3-51.8-51.5-51.8l0,0C95.7,25.9,77,52.2,77,77.7
		c0,6.5,3.8,19.5,6,26.7l0.5,1.7c0.2,1,0.7,2.4,1.4,4.3c2.2,6.5,5.5,17.5,8.2,27.7l3.8-1c-2.6-10.1-6-21.2-8.2-27.9
		c-0.7-1.9-1-3.3-1.4-4.3L87,103c-1.9-6.2-6-19.5-6-25.5C81,54.3,98.3,30,127.5,30h0.2c29.6,0,47.5,24.3,47.5,47.7
		c0,5.7-4.1,19-6,25.5l-0.7,1.4c0,0.2-9.9,32.3-12.5,46.3H96.3v14.4H153v6.8h-51.8v14.4H148v6.2h-43.1l22.9,37.3L143.4,205.3z"/>
</g>
</svg>
